<svg xmlns="http://www.w3.org/2000/svg" width="73.909" height="62.714" viewBox="0 0 73.909 62.714">
  <g id="Group_3983" data-name="Group 3983" transform="translate(-144 -19)">
    <text id="MSM" transform="translate(164 36)" fill="#f7463f" font-size="16" font-family="Poppins-Medium, Poppins" font-weight="500"><tspan x="0" y="0">MSM</tspan></text>
    <g id="Group_3982" data-name="Group 3982" transform="translate(-2927 39)">
      <g id="Group_3980" data-name="Group 3980" transform="translate(3071 28.097)">
        <path id="Path_24205" data-name="Path 24205" d="M3376.6-91.072l-2.511,3.768v1.863l1.756,1.055,1.926-.775,1.8.775,1.752-.775,1.958.775L3385-85.441l1.443,1.055,2.134-.775,1.385.775,2-.775V-87.3l-2.5-4.156Z" transform="translate(-3373.584 91.74)" fill="#f59e13"/>
        <g id="Group_3965" data-name="Group 3965">
          <path id="Path_24203" data-name="Path 24203" d="M102.739,77.427l-2.085-3.45a1.434,1.434,0,0,0-1.221-.689H87.359a1.434,1.434,0,0,0-1.221.689l-2.085,3.45a.43.43,0,0,0-.062.222v1.668A2.042,2.042,0,0,0,86.216,81.1h0v5.383a1.428,1.428,0,0,0,1.426,1.426H99.151a1.428,1.428,0,0,0,1.426-1.426V81.1h0a2.042,2.042,0,0,0,2.224-1.779V77.649a.429.429,0,0,0-.062-.222Zm-3.306-3.281a.571.571,0,0,1,.486.274l1.692,2.8H99.083l-1.115-3.074Zm-2.378,0L98.17,77.22h-2.6L95.2,74.146Zm1.3,3.932v1.239c0,.5-.626.921-1.366.921s-1.366-.422-1.366-.921V78.078Zm-5.9-3.932h1.88l.372,3.074H92.085Zm-.426,3.932h2.733v1.239c0,.5-.626.921-1.366.921s-1.366-.422-1.366-.921Zm-.437-3.932-.371,3.074h-2.6l1.115-3.074Zm-.42,3.932v1.239c0,.5-.626.921-1.366.921s-1.366-.422-1.366-.921V78.078Zm-4.3-3.658a.571.571,0,0,1,.486-.274h1.466L87.711,77.22H85.181Zm-.311,5.787a1.781,1.781,0,0,1-.346.032c-.741,0-1.366-.422-1.366-.921V78.078h2.733v1.239c0,.407-.427.78-1.021.89Zm5.086,6.84H89.113V83.265a.17.17,0,0,1,.17-.169h2.2a.17.17,0,0,1,.17.169Zm8.072-.568a.569.569,0,0,1-.568.568H92.506V83.265a1.028,1.028,0,0,0-1.027-1.027h-2.2a1.028,1.028,0,0,0-1.027,1.027v3.782h-.613a.569.569,0,0,1-.568-.568V80.959a2.2,2.2,0,0,0,.94-.59,2.572,2.572,0,0,0,3.587,0,2.572,2.572,0,0,0,3.59,0,2.572,2.572,0,0,0,3.587,0,2.192,2.192,0,0,0,.941.591Zm2.224-7.162c0,.5-.626.921-1.366.921a1.794,1.794,0,0,1-.351-.033c-.588-.109-1.015-.482-1.015-.889V78.078h2.733Z" transform="translate(-83.992 -73.288)" fill="#f59e13"/>
          <path id="Path_24204" data-name="Path 24204" d="M355.415,326.41h-3.3a1.028,1.028,0,0,0-1.027,1.027v1.208a1.028,1.028,0,0,0,1.027,1.027h3.3a1.029,1.029,0,0,0,1.027-1.027v-1.208A1.029,1.029,0,0,0,355.415,326.41Zm-2.079,2.4h-1.221a.17.17,0,0,1-.17-.169v-1.208a.17.17,0,0,1,.17-.169h1.221Zm2.249-.169a.17.17,0,0,1-.17.169h-1.221v-1.547h1.221a.17.17,0,0,1,.17.169Z" transform="translate(-341.644 -317.461)" fill="#f59e13"/>
        </g>
      </g>
      <g id="Group_3981" data-name="Group 3981" transform="translate(3128.609 29.534)">
        <path id="Path_24205-2" data-name="Path 24205" d="M3376.261-91.124l-2.176,3.265v1.615l1.522.914,1.669-.671,1.563.671,1.518-.671,1.7.671,1.494-.914,1.251.914,1.849-.671,1.2.671L3389.58-86v-1.858l-2.167-3.6Z" transform="translate(-3373.651 91.703)" fill="#f59e13"/>
        <g id="Group_3965-2" data-name="Group 3965" transform="translate(0 0)">
          <path id="Path_24203-2" data-name="Path 24203" d="M100.238,76.875l-1.807-2.99a1.242,1.242,0,0,0-1.058-.6H86.91a1.242,1.242,0,0,0-1.058.6l-1.807,2.99a.372.372,0,0,0-.053.192v1.446a1.769,1.769,0,0,0,1.927,1.542h0v4.664a1.237,1.237,0,0,0,1.236,1.236h9.973a1.237,1.237,0,0,0,1.236-1.236V80.054h0a1.769,1.769,0,0,0,1.927-1.542V77.067a.372.372,0,0,0-.054-.192Zm-2.865-2.843a.5.5,0,0,1,.422.238L99.261,76.7H97.069L96.1,74.031Zm-2.061,0,.966,2.664H94.027L93.7,74.031Zm1.124,3.407v1.074c0,.433-.542.8-1.184.8s-1.184-.366-1.184-.8V77.439Zm-5.11-3.407h1.629l.322,2.664H91.005Zm-.37,3.407h2.368v1.074c0,.433-.542.8-1.184.8s-1.184-.366-1.184-.8Zm-.379-3.407-.322,2.664H88l.966-2.664Zm-.364,3.407v1.074c0,.433-.542.8-1.184.8s-1.184-.366-1.184-.8V77.439Zm-3.726-3.169a.5.5,0,0,1,.422-.238h1.27L87.214,76.7H85.022Zm-.27,5.014a1.543,1.543,0,0,1-.3.027c-.642,0-1.184-.366-1.184-.8V77.439H87.1v1.074c0,.352-.37.676-.885.771Zm4.408,5.928h-2.2V81.933a.147.147,0,0,1,.147-.147h1.9a.147.147,0,0,1,.147.147Zm6.995-.493a.493.493,0,0,1-.493.493H91.37V81.933a.891.891,0,0,0-.89-.89h-1.9a.891.891,0,0,0-.89.89v3.278h-.532a.493.493,0,0,1-.493-.493V79.936a1.9,1.9,0,0,0,.815-.512,2.229,2.229,0,0,0,3.109,0,2.228,2.228,0,0,0,3.111,0,2.229,2.229,0,0,0,3.108,0,1.9,1.9,0,0,0,.815.512Zm1.927-6.206c0,.433-.542.8-1.184.8a1.554,1.554,0,0,1-.3-.028c-.51-.094-.88-.418-.88-.77V77.438h2.368Z" transform="translate(-83.992 -73.288)" fill="#f59e13"/>
          <path id="Path_24204-2" data-name="Path 24204" d="M354.837,326.41h-2.86a.891.891,0,0,0-.89.89v1.047a.891.891,0,0,0,.89.89h2.86a.891.891,0,0,0,.89-.89V327.3A.891.891,0,0,0,354.837,326.41Zm-1.8,2.084h-1.058a.147.147,0,0,1-.147-.147V327.3a.147.147,0,0,1,.147-.147h1.058Zm1.949-.147a.147.147,0,0,1-.147.147h-1.058v-1.341h1.058a.147.147,0,0,1,.147.147Z" transform="translate(-342.904 -318.655)" fill="#f59e13"/>
        </g>
      </g>
      <g id="Group_3977" data-name="Group 3977" transform="translate(3081.547 -1)">
        <g id="Group_3965-3" data-name="Group 3965">
          <path id="Path_24203-3" data-name="Path 24203" d="M139.844,85.618,133.633,75.34A4.271,4.271,0,0,0,130,73.288H94.024a4.271,4.271,0,0,0-3.636,2.052L84.176,85.618a1.279,1.279,0,0,0-.184.661v4.97c0,2.923,2.972,5.3,6.626,5.3h0v16.036a4.254,4.254,0,0,0,4.249,4.249h34.287a4.254,4.254,0,0,0,4.249-4.249V96.55h0c3.653,0,6.626-2.378,6.626-5.3V86.28a1.279,1.279,0,0,0-.184-.661ZM130,75.843a1.7,1.7,0,0,1,1.449.818l5.04,8.34h-7.535l-3.32-9.158Zm-7.084,0L126.232,85h-7.742l-1.107-9.158Zm3.865,11.714v3.692c0,1.488-1.864,2.745-4.071,2.745s-4.07-1.257-4.07-2.745V87.557ZM109.21,75.843h5.6L115.917,85H108.1ZM107.94,87.557h8.141v3.692c0,1.488-1.864,2.745-4.071,2.745s-4.071-1.257-4.071-2.745Zm-1.3-11.714L105.53,85H97.788l3.32-9.158Zm-1.252,11.714v3.692c0,1.488-1.864,2.745-4.071,2.745s-4.071-1.257-4.071-2.745V87.557Zm-12.809-10.9a1.7,1.7,0,0,1,1.449-.817h4.366L95.07,85H87.535ZM91.647,93.9a5.311,5.311,0,0,1-1.029.094c-2.206,0-4.071-1.257-4.071-2.745V87.557h8.141v3.692c0,1.211-1.272,2.325-3.041,2.651ZM106.8,114.279H99.249V103.01a.506.506,0,0,1,.505-.5H106.3a.506.506,0,0,1,.505.5Zm24.047-1.693a1.7,1.7,0,0,1-1.693,1.693h-19.8V103.01a3.064,3.064,0,0,0-3.06-3.06H99.755a3.064,3.064,0,0,0-3.06,3.06v11.268H94.867a1.7,1.7,0,0,1-1.694-1.694V96.143a6.541,6.541,0,0,0,2.8-1.759,7.662,7.662,0,0,0,10.687-.01,7.661,7.661,0,0,0,10.7,0,7.662,7.662,0,0,0,10.687.011,6.53,6.53,0,0,0,2.8,1.76Zm6.626-21.336c0,1.488-1.864,2.745-4.071,2.745a5.343,5.343,0,0,1-1.046-.1c-1.752-.323-3.025-1.437-3.025-2.648V87.557h8.141Z" transform="translate(-83.992 -73.288)" fill="#f7463f"/>
          <path id="Path_24204-3" data-name="Path 24204" d="M363.98,326.41h-9.832a3.064,3.064,0,0,0-3.06,3.06v3.6a3.064,3.064,0,0,0,3.06,3.06h9.833a3.064,3.064,0,0,0,3.06-3.06v-3.6A3.064,3.064,0,0,0,363.98,326.41Zm-6.194,7.165h-3.638a.506.506,0,0,1-.505-.5v-3.6a.506.506,0,0,1,.505-.5h3.639Zm6.7-.5a.506.506,0,0,1-.505.5h-3.639v-4.609h3.639a.506.506,0,0,1,.505.5Z" transform="translate(-322.954 -299.748)" fill="#f59e13"/>
        </g>
      </g>
    </g>
  </g>
</svg>
